<?xml version="1.0" encoding="UTF-8" standalone="no" ?>
<!DOCTYPE svg PUBLIC "-//W3C//DTD SVG 1.1//EN" "http://www.w3.org/Graphics/SVG/1.1/DTD/svg11.dtd">
<svg xmlns="http://www.w3.org/2000/svg" xmlns:xlink="http://www.w3.org/1999/xlink" version="1.1" width="1920" height="1280" viewBox="0 0 1920 1280" xml:space="preserve">
<desc>Created with Fabric.js 5.3.0</desc>
<defs>
</defs>
<g transform="matrix(12.22725 0 0 -4.137375 960 324.5)" id="nPMRY3814P67zdlxlvQhn"  >
<linearGradient id="SVGID_2418" gradientUnits="userSpaceOnUse" gradientTransform="matrix(1 0 0 1 -78.431372549 -78.431372549)"  x1="75.03246597085281" y1="150.50857102212115" x2="74.31683531484981" y2="3.6986983426986058">
<stop offset="0%" style="stop-color:#000000;stop-opacity: 1"/>
<stop offset="54.30909591464624%" style="stop-color:#330F3B;stop-opacity: 1"/>
<stop offset="100%" style="stop-color:#AC0068;stop-opacity: 1"/>
</linearGradient>
<path style="stroke: rgb(162,168,98); stroke-width: 0; stroke-dasharray: none; stroke-linecap: butt; stroke-dashoffset: 0; stroke-linejoin: miter; stroke-miterlimit: 4; fill: url(#SVGID_2418); fill-rule: nonzero; opacity: 1;"  transform=" translate(0, 0)" d="M -78.43137 -78.43137 L 78.43138 -78.43137 L 78.43138 78.43138 L -78.43137 78.43138 z" stroke-linecap="round" />
</g>
<g transform="matrix(0.9563839888 0 0 0.9556067799 497.5 575.5)" id="ZPHNVAxH0dYi-fnoq0s0X"  >
<path style="stroke: rgb(245,228,228); stroke-width: 0; stroke-dasharray: none; stroke-linecap: butt; stroke-dashoffset: 0; stroke-linejoin: miter; stroke-miterlimit: 4; fill: rgb(0,0,0); fill-rule: nonzero; opacity: 0.57;"  transform=" translate(0.000005, 0)" d="M -356.02855 83.17302 L -356.02855 35.00594999999999 L -326.12449 35.00594999999999 L -326.12449 -33.60719000000001 L -280.86902 -33.60719000000001 L -280.86902 35.00594999999999 L -259.70113999999995 35.00594999999999 L -259.70113999999995 -93.65777000000003 L -211.52595999999994 -93.65777000000003 L -211.52595999999994 89.02054999999999 L -164.08069999999995 89.02054999999999 L -164.08069999999995 -2.950250000000011 L -108.60624999999996 -2.950250000000011 L -108.60624999999996 89.02054999999999 L -73.56974999999997 89.02054999999999 L -73.56974999999997 -82.51230000000001 L -19.55514999999997 -82.51230000000001 L -19.55514999999997 89.02054999999999 L 5.262370000000029 89.02054999999999 L 5.262370000000029 -57.69478000000001 L 57.81711000000003 -57.69478000000001 L 57.81711000000003 39.38551 L 93.58353000000002 39.38551 L 93.58353000000002 -33.60719 L 136.64922 -33.60719 L 136.64922 89.02055 L 171.68572 89.02055 L 171.68572 -78.13273 L 218.40105 -78.13273 L 222.05069 89.02055 L 258.34703 89.02055 L 258.34703 -57.694779999999994 L 308.26237000000003 -57.694779999999994 L 308.26237000000003 60.55340000000001 L 325.99183000000005 60.55340000000001 L 325.99183000000005 19.677490000000013 L 354.45898000000005 19.677490000000013 L 354.45898000000005 89.02056000000002 L 356.0285400000001 93.65777000000001 L -356.02854999999994 89.02056000000002 z" stroke-linecap="round" />
</g>
<g transform="matrix(1 0 0 1 1007.0588235294 346.6666666667)" id="ITgAntfRu31x5cAyQDKa4"  >
<path style="stroke: rgb(0,0,0); stroke-width: 1; stroke-dasharray: none; stroke-linecap: round; stroke-dashoffset: 0; stroke-linejoin: round; stroke-miterlimit: 10; fill: none; fill-rule: nonzero; opacity: 1;"  transform=" translate(-1007.0588235294, -346.6666666667)" d="M 1007.0578235294118 346.66666666666725 L 1007.0598235294118 346.66666666666725" stroke-linecap="round" />
</g>
<g transform="matrix(1.2336956522 0 0 1.2336956522 1033.5000000006 476)" id="Ax5abF59wxKBYPzlVvAtp"  >
<linearGradient id="SVGID_3247" gradientUnits="userSpaceOnUse" gradientTransform="matrix(1 0 0 1 -184 -184)"  x1="186.9546681785107" y1="321.92809435547474" x2="184" y2="2.842170943040401e-14">
<stop offset="0%" style="stop-color:#BA02A3;stop-opacity: 1"/>
<stop offset="50.735798918367436%" style="stop-color:#CA8540;stop-opacity: 1"/>
<stop offset="100%" style="stop-color:#C71900;stop-opacity: 1"/>
</linearGradient>
<path style="stroke: rgb(255,255,255); stroke-width: 0; stroke-dasharray: none; stroke-linecap: butt; stroke-dashoffset: 0; stroke-linejoin: miter; stroke-miterlimit: 4; fill: url(#SVGID_3247); fill-rule: nonzero; opacity: 1;"  transform=" translate(0, 0)" d="M 0 -184 C 101.568 -184 184 -101.568 184 0 C 184 101.568 101.568 184 0 184 C -101.568 184 -184 101.568 -184 0 C -184 -101.568 -101.568 -184 0 -184 z" stroke-linecap="round" />
</g>
<g transform="matrix(-1.0214912274 0 0 -0.3355263156 960 964)" id="a8zV8xfIash5pRcln2SUI"  >
<path style="stroke: rgb(142,30,178); stroke-width: 0; stroke-dasharray: none; stroke-linecap: butt; stroke-dashoffset: 0; stroke-linejoin: miter; stroke-miterlimit: 4; fill: rgb(0,0,0); fill-rule: nonzero; opacity: 1;"  transform=" translate(0, 0)" d="M -938.82353 -938.82353 L 938.82353 -938.82353 L 938.82353 938.82353 L -938.82353 938.82353 z" stroke-linecap="round" />
</g>
<g transform="matrix(1 0 0 1 815.6862745098 858.0392156863)" id="h-BCg4tiURJzXg4YuwQMB"  >
<path style="stroke: rgb(0,0,0); stroke-width: 1; stroke-dasharray: none; stroke-linecap: round; stroke-dashoffset: 0; stroke-linejoin: round; stroke-miterlimit: 10; fill: none; fill-rule: nonzero; opacity: 1;"  transform=" translate(-815.6862745098, -858.0392156863)" d="M 815.685274509804 858.039215686275 L 815.687274509804 858.039215686275" stroke-linecap="round" />
</g>
<g transform="matrix(1 0 0 1 831.3725490196 487.8431372549)" id="S6nwcCwjtauTRdRiMUZ0C"  >
<path style="stroke: rgb(0,0,0); stroke-width: 1; stroke-dasharray: none; stroke-linecap: round; stroke-dashoffset: 0; stroke-linejoin: round; stroke-miterlimit: 10; fill: none; fill-rule: nonzero; opacity: 1;"  transform=" translate(-831.3725490196, -487.8431372549)" d="M 831.3715490196079 487.84313725490256 L 831.3735490196078 487.84313725490256" stroke-linecap="round" />
</g>
<g transform="matrix(1 0 0 1 831.3725490196 487.8431372549)" id="VhgmVtooNV-nG-G_4_M98"  >
<path style="stroke: rgb(0,0,0); stroke-width: 1; stroke-dasharray: none; stroke-linecap: round; stroke-dashoffset: 0; stroke-linejoin: round; stroke-miterlimit: 10; fill: none; fill-rule: nonzero; opacity: 1;"  transform=" translate(-831.3725490196, -487.8431372549)" d="M 831.3715490196079 487.84313725490256 L 831.3735490196078 487.84313725490256" stroke-linecap="round" />
</g>
<g transform="matrix(1 0 0 1 831.3725490196 486.2745098039)" id="pQbvzMgIrFtu_o0TsOQYb"  >
<path style="stroke: rgb(0,0,0); stroke-width: 1; stroke-dasharray: none; stroke-linecap: round; stroke-dashoffset: 0; stroke-linejoin: round; stroke-miterlimit: 10; fill: none; fill-rule: nonzero; opacity: 1;"  transform=" translate(-831.3725490196, -486.2745098039)" d="M 831.3715490196079 486.2745098039221 L 831.3735490196078 486.2745098039221" stroke-linecap="round" />
</g>
<g transform="matrix(4.9213483146 0 0 0.2359550562 1032.5000000006 563.5)" id="ICTKdzLf3ErpG6UIcvs36"  >
<path style="stroke: rgb(255,255,255); stroke-width: 0; stroke-dasharray: none; stroke-linecap: butt; stroke-dashoffset: 0; stroke-linejoin: miter; stroke-miterlimit: 4; fill: rgb(143,3,93); fill-rule: nonzero; opacity: 1;"  transform=" translate(0, 0)" d="M -44.5 -44.5 L 44.5 -44.5 L 44.5 44.5 L -44.5 44.5 z" stroke-linecap="round" />
</g>
<g transform="matrix(4.3033707865 0 0 0.2359550562 1030.0000000006 616.5)" id="MuxScYdQ8sDFBEizmJqu2"  >
<path style="stroke: rgb(255,255,255); stroke-width: 0; stroke-dasharray: none; stroke-linecap: butt; stroke-dashoffset: 0; stroke-linejoin: miter; stroke-miterlimit: 4; fill: rgb(166,0,101); fill-rule: nonzero; opacity: 1;"  transform=" translate(0, 0)" d="M -44.5 -44.5 L 44.5 -44.5 L 44.5 44.5 L -44.5 44.5 z" stroke-linecap="round" />
</g>
<g transform="matrix(5.1235955056 0 0 0.1797752809 1033.5000000006 468)" id="UIpjfesTBhxeOvuPekT98"  >
<path style="stroke: rgb(255,255,255); stroke-width: 0; stroke-dasharray: none; stroke-linecap: butt; stroke-dashoffset: 0; stroke-linejoin: miter; stroke-miterlimit: 4; fill: rgb(101,9,78); fill-rule: nonzero; opacity: 1;"  transform=" translate(0, 0)" d="M -44.5 -44.5 L 44.5 -44.5 L 44.5 44.5 L -44.5 44.5 z" stroke-linecap="round" />
</g>
<g transform="matrix(5.1685393258 0 0 0.1797752809 1036.5000000006 517)" id="ZZrVVPsMlmBCxqtNdzldn"  >
<path style="stroke: rgb(255,255,255); stroke-width: 0; stroke-dasharray: none; stroke-linecap: butt; stroke-dashoffset: 0; stroke-linejoin: miter; stroke-miterlimit: 4; fill: rgb(123,6,86); fill-rule: nonzero; opacity: 1;"  transform=" translate(0, 0)" d="M -44.5 -44.5 L 44.5 -44.5 L 44.5 44.5 L -44.5 44.5 z" stroke-linecap="round" />
</g>
<g transform="matrix(0.7597705385 0 0 0.955606824 1447.5 558.5)" id="AGinXKkGlQ575UyhCsfZb"  >
<path style="stroke: rgb(245,228,228); stroke-width: 0; stroke-dasharray: none; stroke-linecap: butt; stroke-dashoffset: 0; stroke-linejoin: miter; stroke-miterlimit: 4; fill: rgb(0,0,0); fill-rule: nonzero; opacity: 0.57;"  transform=" translate(0, 0)" d="M -356.02855 83.17302 L -356.02855 35.00594999999999 L -326.12449 35.00594999999999 L -326.12449 -33.60719000000001 L -280.86902 -33.60719000000001 L -280.86902 35.00594999999999 L -259.70113999999995 35.00594999999999 L -259.70113999999995 -93.65777000000003 L -211.52595999999994 -93.65777000000003 L -211.52595999999994 89.02054999999999 L -164.08069999999995 89.02054999999999 L -164.08069999999995 -2.950250000000011 L -108.60624999999996 -2.950250000000011 L -108.60624999999996 89.02054999999999 L -73.56974999999997 89.02054999999999 L -73.56974999999997 -82.51230000000001 L -19.55514999999997 -82.51230000000001 L -19.55514999999997 89.02054999999999 L 5.262370000000029 89.02054999999999 L 5.262370000000029 -57.69478000000001 L 57.81711000000003 -57.69478000000001 L 57.81711000000003 39.38551 L 93.58353000000002 39.38551 L 93.58353000000002 -33.60719 L 136.64922 -33.60719 L 136.64922 89.02055 L 171.68572 89.02055 L 171.68572 -78.13273 L 218.40105 -78.13273 L 222.05069 89.02055 L 258.34703 89.02055 L 258.34703 -57.694779999999994 L 308.26237000000003 -57.694779999999994 L 308.26237000000003 60.55340000000001 L 325.99183000000005 60.55340000000001 L 325.99183000000005 19.677490000000013 L 354.45898000000005 19.677490000000013 L 354.45898000000005 89.02056000000002 L 356.0285400000001 93.65777000000001 L -356.02854999999994 89.02056000000002 z" stroke-linecap="round" />
</g>
<g transform="matrix(1.0000151031 0 0 0.9999999526 945.5 558.5)" id="PnIl5r8ahn9EQ87jXvrIV"  >
<path style="stroke: rgb(245,228,228); stroke-width: 0; stroke-dasharray: none; stroke-linecap: butt; stroke-dashoffset: 0; stroke-linejoin: miter; stroke-miterlimit: 4; fill: rgb(0,0,0); fill-rule: nonzero; opacity: 1;"  transform=" translate(-0.00001, -0.000005)" d="M -704.48935 71.33079 L -704.48935 23.16371999999999 L -674.58529 23.16371999999999 L -674.58529 -45.44942000000001 L -629.3298199999999 -45.44942000000001 L -629.3298199999999 23.16371999999999 L -608.16194 23.16371999999999 L -608.16194 -105.50000000000003 L -559.98676 -105.50000000000003 L -559.98676 77.17831999999999 L -512.5415 77.17831999999999 L -512.5415 -14.792480000000012 L -457.06705000000005 -14.792480000000012 L -457.06705000000005 77.17831999999999 L -422.03055000000006 77.17831999999999 L -422.03055000000006 -94.35453000000001 L -368.0159500000001 -94.35453000000001 L -368.0159500000001 77.17831999999999 L -343.1984300000001 77.17831999999999 L -343.1984300000001 -69.53701000000001 L -290.6436900000001 -69.53701000000001 L -290.6436900000001 27.543279999999996 L -254.87727000000012 27.543279999999996 L -254.87727000000012 -45.44942 L -211.81158000000013 -45.44942 L -211.81158000000013 77.17832 L -176.77508000000014 77.17832 L -176.77508000000014 -89.97496 L -130.05975000000015 -89.97496 L -126.41011000000015 77.17832 L -90.11377000000014 77.17832 L -90.11377000000014 -69.53701 L -40.198430000000144 -69.53701 L -40.198430000000144 48.71117000000001 L -22.468970000000144 48.71117000000001 L -22.468970000000144 7.835260000000012 L 5.998179999999856 7.835260000000012 L 5.998179999999856 77.17833000000002 L 21.326649999999855 77.17833000000002 L 21.326649999999855 -81.94575999999998 L 60.01277999999985 -81.94575999999998 L 60.01277999999985 77.17833000000002 L 89.93978999999985 77.17833000000002 L 89.93978999999985 -69.53699999999998 L 129.35584999999986 -69.53699999999998 L 129.35584999999986 38.492200000000025 L 162.20256999999987 38.492200000000025 L 162.20256999999987 -81.94575999999998 L 191.39964999999987 -81.94575999999998 L 191.39964999999987 56.01044000000002 L 203.80840999999987 56.01044000000002 L 203.80840999999987 13.67467000000002 L 243.22446999999988 13.67467000000002 L 243.22446999999988 48.71117000000002 L 260.7427199999999 48.71117000000002 L 260.7427199999999 -18.44210999999998 L 293.5894399999999 -18.44210999999998 L 293.5894399999999 77.17833000000002 L 305.2682699999999 77.17833000000002 L 305.2682699999999 -81.94575999999998 L 349.7938199999999 -81.94575999999998 L 349.7938199999999 7.835260000000019 L 391.3996599999999 7.835260000000019 L 391.3996599999999 -35.96035999999998 L 433.0054999999999 -35.96035999999998 L 433.0054999999999 42.14183000000001 L 470.96169999999995 42.14183000000001 L 470.96169999999995 -94.35452 L 505.99819999999994 -94.35452 L 505.99819999999994 56.01044 L 536.6061599999999 56.01044 L 536.6061599999999 -45.44941 L 595.73025 -45.44941 L 595.73025 38.4922 L 641.71565 38.4922 L 641.71565 77.17832999999999 L 663.61346 77.17832999999999 L 663.61346 17.324319999999986 L 704.48937 17.324319999999986 L 704.48937 77.17832999999999 L 704.48937 105.50000999999999 L -704.4893299999999 105.50000999999999 L -704.4893299999999 66.95934999999999" stroke-linecap="round" />
</g>
</svg>